<?xml version="1.0" encoding="UTF-8" standalone="no"?>
<!DOCTYPE svg PUBLIC "-//W3C//DTD SVG 1.1//EN"
 "http://www.w3.org/Graphics/SVG/1.1/DTD/svg11.dtd">
<!-- Generated by graphviz version 12.2.0 (20241103.1931)
 -->
<!-- Title: layer1_transactions Pages: 1 -->
<svg width="1759pt" height="294pt"
 viewBox="0.00 0.00 1758.75 294.00" xmlns="http://www.w3.org/2000/svg" xmlns:xlink="http://www.w3.org/1999/xlink">
<g id="graph0" class="graph" transform="scale(1 1) rotate(0) translate(4 290)">
<title>layer1_transactions</title>
<polygon fill="white" stroke="none" points="-4,4 -4,-290 1754.75,-290 1754.75,4 -4,4"/>
<!-- collateral&#45;a -->
<g id="node1" class="node">
<title>collateral&#45;a</title>
<polygon fill="none" stroke="black" points="341,-17 341,-53 493.75,-53 493.75,-17 341,-17"/>
<text text-anchor="middle" x="399.25" y="-29.2" font-family="Helvetica,Arial,sans-serif" font-size="14.00">game&#45;address&#45;A</text>
<polyline fill="none" stroke="black" points="457.5,-17 457.5,-53"/>
<text text-anchor="middle" x="475.62" y="-29.2" font-family="Helvetica,Arial,sans-serif" font-size="14.00">8 ₳</text>
</g>
<!-- commit&#45;a -->
<g id="node9" class="node">
<title>commit&#45;a</title>
<path fill="none" stroke="black" d="M545.75,-108.5C545.75,-108.5 628.5,-108.5 628.5,-108.5 634.5,-108.5 640.5,-114.5 640.5,-120.5 640.5,-120.5 640.5,-165.5 640.5,-165.5 640.5,-171.5 634.5,-177.5 628.5,-177.5 628.5,-177.5 545.75,-177.5 545.75,-177.5 539.75,-177.5 533.75,-171.5 533.75,-165.5 533.75,-165.5 533.75,-120.5 533.75,-120.5 533.75,-114.5 539.75,-108.5 545.75,-108.5"/>
<text text-anchor="middle" x="587.12" y="-160.2" font-family="Helvetica,Arial,sans-serif" font-size="14.00">commit&#45;tx</text>
<polyline fill="none" stroke="black" points="533.75,-154.5 640.5,-154.5"/>
<text text-anchor="middle" x="587.12" y="-137.2" font-family="Helvetica,Arial,sans-serif" font-size="14.00">σ(A), σ(FundA)</text>
<polyline fill="none" stroke="black" points="533.75,-131.5 640.5,-131.5"/>
<text text-anchor="middle" x="587.12" y="-114.2" font-family="Helvetica,Arial,sans-serif" font-size="14.00"> </text>
</g>
<!-- collateral&#45;a&#45;&gt;commit&#45;a -->
<g id="edge6" class="edge">
<title>collateral&#45;a&#45;&gt;commit&#45;a</title>
<path fill="none" stroke="black" d="M478.91,-53.49C485.44,-56.32 491.85,-59.48 497.75,-63 514.84,-73.18 531.56,-87 545.77,-100.29"/>
<polygon fill="black" stroke="black" points="543.1,-102.57 552.74,-106.97 547.95,-97.52 543.1,-102.57"/>
</g>
<!-- token&#45;a -->
<g id="node2" class="node">
<title>token&#45;a</title>
<polygon fill="none" stroke="black" points="359.5,-216.5 359.5,-285.5 475.25,-285.5 475.25,-216.5 359.5,-216.5"/>
<text text-anchor="middle" x="417.38" y="-268.2" font-family="Helvetica,Arial,sans-serif" font-size="14.00">elo&#45;script</text>
<polyline fill="none" stroke="black" points="359.5,-262.5 475.25,-262.5"/>
<text text-anchor="middle" x="417.38" y="-245.2" font-family="Helvetica,Arial,sans-serif" font-size="14.00">2 ₳ + 1 pid.pkhA</text>
<polyline fill="none" stroke="black" points="359.5,-239.5 475.25,-239.5"/>
<text text-anchor="middle" x="417.38" y="-222.2" font-family="Helvetica,Arial,sans-serif" font-size="14.00">1000</text>
</g>
<!-- token&#45;a&#45;&gt;commit&#45;a -->
<g id="edge7" class="edge">
<title>token&#45;a&#45;&gt;commit&#45;a</title>
<path fill="none" stroke="black" d="M475.66,-220.33C483.17,-215.99 490.7,-211.48 497.75,-207 508.63,-200.08 519.97,-192.32 530.76,-184.65"/>
<polygon fill="black" stroke="black" points="532.77,-187.51 538.84,-178.84 528.68,-181.83 532.77,-187.51"/>
</g>
<!-- mint&#45;token&#45;a -->
<g id="node3" class="node">
<title>mint&#45;token&#45;a</title>
<path fill="none" stroke="black" d="M191,-180.5C191,-180.5 289,-180.5 289,-180.5 295,-180.5 301,-186.5 301,-192.5 301,-192.5 301,-237.5 301,-237.5 301,-243.5 295,-249.5 289,-249.5 289,-249.5 191,-249.5 191,-249.5 185,-249.5 179,-243.5 179,-237.5 179,-237.5 179,-192.5 179,-192.5 179,-186.5 185,-180.5 191,-180.5"/>
<text text-anchor="middle" x="240" y="-232.2" font-family="Helvetica,Arial,sans-serif" font-size="14.00">register&#45;token</text>
<polyline fill="none" stroke="black" points="179,-226.5 301,-226.5"/>
<text text-anchor="middle" x="240" y="-209.2" font-family="Helvetica,Arial,sans-serif" font-size="14.00">σ(A)</text>
<polyline fill="none" stroke="black" points="179,-203.5 301,-203.5"/>
<text text-anchor="middle" x="200.12" y="-186.2" font-family="Helvetica,Arial,sans-serif" font-size="14.00">mint</text>
<polyline fill="none" stroke="black" points="221.25,-180.5 221.25,-203.5"/>
<text text-anchor="middle" x="261.12" y="-186.2" font-family="Helvetica,Arial,sans-serif" font-size="14.00">1 pid.pkhA</text>
</g>
<!-- mint&#45;token&#45;a&#45;&gt;token&#45;a -->
<g id="edge5" class="edge">
<title>mint&#45;token&#45;a&#45;&gt;token&#45;a</title>
<path fill="none" stroke="black" d="M301.35,-227.39C316.42,-230.48 332.69,-233.82 348.11,-236.99"/>
<polygon fill="black" stroke="black" points="347.18,-240.37 357.68,-238.95 348.59,-233.51 347.18,-240.37"/>
</g>
<!-- change&#45;a -->
<g id="node5" class="node">
<title>change&#45;a</title>
<polygon fill="none" stroke="black" points="345.88,-161 345.88,-197 488.88,-197 488.88,-161 345.88,-161"/>
<text text-anchor="middle" x="399.25" y="-173.2" font-family="Helvetica,Arial,sans-serif" font-size="14.00">address&#45;fund&#45;a</text>
<polyline fill="none" stroke="black" points="452.62,-161 452.62,-197"/>
<text text-anchor="middle" x="470.75" y="-173.2" font-family="Helvetica,Arial,sans-serif" font-size="14.00">? ₳</text>
</g>
<!-- mint&#45;token&#45;a&#45;&gt;change&#45;a -->
<g id="edge4" class="edge">
<title>mint&#45;token&#45;a&#45;&gt;change&#45;a</title>
<path fill="none" stroke="black" d="M301.35,-202.61C312.05,-200.41 323.36,-198.09 334.54,-195.8"/>
<polygon fill="black" stroke="black" points="335.07,-199.26 344.16,-193.82 333.66,-192.41 335.07,-199.26"/>
</g>
<!-- fees&#45;a -->
<g id="node4" class="node">
<title>fees&#45;a</title>
<polygon fill="none" stroke="black" points="0,-197 0,-233 143,-233 143,-197 0,-197"/>
<text text-anchor="middle" x="53.38" y="-209.2" font-family="Helvetica,Arial,sans-serif" font-size="14.00">address&#45;fund&#45;a</text>
<polyline fill="none" stroke="black" points="106.75,-197 106.75,-233"/>
<text text-anchor="middle" x="124.88" y="-209.2" font-family="Helvetica,Arial,sans-serif" font-size="14.00">? ₳</text>
</g>
<!-- fees&#45;a&#45;&gt;mint&#45;token&#45;a -->
<g id="edge3" class="edge">
<title>fees&#45;a&#45;&gt;mint&#45;token&#45;a</title>
<path fill="none" stroke="black" d="M143.11,-215C151.03,-215 159.11,-215 167.04,-215"/>
<polygon fill="black" stroke="black" points="167.02,-218.5 177.02,-215 167.02,-211.5 167.02,-218.5"/>
</g>
<!-- change&#45;a&#45;&gt;commit&#45;a -->
<g id="edge8" class="edge">
<title>change&#45;a&#45;&gt;commit&#45;a</title>
<path fill="none" stroke="black" d="M489.03,-163.84C500.06,-161.47 511.41,-159.04 522.27,-156.7"/>
<polygon fill="black" stroke="black" points="522.87,-160.15 531.92,-154.63 521.4,-153.31 522.87,-160.15"/>
</g>
<!-- fees&#45;collateral&#45;a -->
<g id="node6" class="node">
<title>fees&#45;collateral&#45;a</title>
<polygon fill="none" stroke="black" points="0,-17 0,-53 143,-53 143,-17 0,-17"/>
<text text-anchor="middle" x="53.38" y="-29.2" font-family="Helvetica,Arial,sans-serif" font-size="14.00">address&#45;fund&#45;a</text>
<polyline fill="none" stroke="black" points="106.75,-17 106.75,-53"/>
<text text-anchor="middle" x="124.88" y="-29.2" font-family="Helvetica,Arial,sans-serif" font-size="14.00">? ₳</text>
</g>
<!-- create&#45;collateral -->
<g id="node7" class="node">
<title>create&#45;collateral</title>
<path fill="none" stroke="black" d="M192.25,-0.5C192.25,-0.5 287.75,-0.5 287.75,-0.5 293.75,-0.5 299.75,-6.5 299.75,-12.5 299.75,-12.5 299.75,-57.5 299.75,-57.5 299.75,-63.5 293.75,-69.5 287.75,-69.5 287.75,-69.5 192.25,-69.5 192.25,-69.5 186.25,-69.5 180.25,-63.5 180.25,-57.5 180.25,-57.5 180.25,-12.5 180.25,-12.5 180.25,-6.5 186.25,-0.5 192.25,-0.5"/>
<text text-anchor="middle" x="240" y="-52.2" font-family="Helvetica,Arial,sans-serif" font-size="14.00">register&#45;collateral</text>
<polyline fill="none" stroke="black" points="180.25,-46.5 299.75,-46.5"/>
<text text-anchor="middle" x="240" y="-29.2" font-family="Helvetica,Arial,sans-serif" font-size="14.00">σ(A)</text>
<polyline fill="none" stroke="black" points="180.25,-23.5 299.75,-23.5"/>
<text text-anchor="middle" x="240" y="-6.2" font-family="Helvetica,Arial,sans-serif" font-size="14.00"> </text>
</g>
<!-- fees&#45;collateral&#45;a&#45;&gt;create&#45;collateral -->
<g id="edge1" class="edge">
<title>fees&#45;collateral&#45;a&#45;&gt;create&#45;collateral</title>
<path fill="none" stroke="black" d="M143.11,-35C151.52,-35 160.11,-35 168.51,-35"/>
<polygon fill="black" stroke="black" points="168.32,-38.5 178.32,-35 168.32,-31.5 168.32,-38.5"/>
</g>
<!-- create&#45;collateral&#45;&gt;collateral&#45;a -->
<g id="edge2" class="edge">
<title>create&#45;collateral&#45;&gt;collateral&#45;a</title>
<path fill="none" stroke="black" d="M299.89,-35C309.36,-35 319.33,-35 329.3,-35"/>
<polygon fill="black" stroke="black" points="329,-38.5 339,-35 329,-31.5 329,-38.5"/>
</g>
<!-- initial&#45;a -->
<g id="node8" class="node">
<title>initial&#45;a</title>
<polygon fill="none" stroke="black" points="337,-72.5 337,-141.5 497.75,-141.5 497.75,-72.5 337,-72.5"/>
<text text-anchor="middle" x="417.38" y="-124.2" font-family="Helvetica,Arial,sans-serif" font-size="14.00">ν_initial</text>
<polyline fill="none" stroke="black" points="337,-118.5 497.75,-118.5"/>
<text text-anchor="middle" x="417.38" y="-101.2" font-family="Helvetica,Arial,sans-serif" font-size="14.00">2 ₳ + 1 headId.pkhFund</text>
<polyline fill="none" stroke="black" points="337,-95.5 497.75,-95.5"/>
<text text-anchor="middle" x="417.38" y="-78.2" font-family="Helvetica,Arial,sans-serif" font-size="14.00">headId</text>
</g>
<!-- initial&#45;a&#45;&gt;commit&#45;a -->
<g id="edge9" class="edge">
<title>initial&#45;a&#45;&gt;commit&#45;a</title>
<path fill="none" stroke="black" d="M497.83,-124.05C506,-125.81 514.23,-127.57 522.21,-129.28"/>
<polygon fill="black" stroke="black" points="521.28,-132.66 531.8,-131.34 522.75,-125.82 521.28,-132.66"/>
<text text-anchor="middle" x="465.4" y="-133.36" font-family="Helvetica,Arial,sans-serif" font-size="14.00">ViaCommit(ρ(tokenA))</text>
</g>
<!-- commit&#45;output&#45;a -->
<g id="node10" class="node">
<title>commit&#45;output&#45;a</title>
<polygon fill="none" stroke="black" points="676.5,-144.5 676.5,-213.5 924.25,-213.5 924.25,-144.5 676.5,-144.5"/>
<text text-anchor="middle" x="800.38" y="-196.2" font-family="Helvetica,Arial,sans-serif" font-size="14.00">ν_commit</text>
<polyline fill="none" stroke="black" points="676.5,-190.5 924.25,-190.5"/>
<text text-anchor="middle" x="800.38" y="-173.2" font-family="Helvetica,Arial,sans-serif" font-size="14.00">10 ₳ + 1 headId.pkhFund + 1 pid.pkhA</text>
<polyline fill="none" stroke="black" points="676.5,-167.5 924.25,-167.5"/>
<text text-anchor="middle" x="800.38" y="-150.2" font-family="Helvetica,Arial,sans-serif" font-size="14.00"> </text>
</g>
<!-- commit&#45;a&#45;&gt;commit&#45;output&#45;a -->
<g id="edge10" class="edge">
<title>commit&#45;a&#45;&gt;commit&#45;output&#45;a</title>
<path fill="none" stroke="black" d="M640.89,-151.99C648.53,-153.29 656.68,-154.68 665.09,-156.12"/>
<polygon fill="black" stroke="black" points="664.33,-159.54 674.78,-157.77 665.51,-152.64 664.33,-159.54"/>
</g>
<!-- change&#45;fund&#45;a -->
<g id="node11" class="node">
<title>change&#45;fund&#45;a</title>
<polygon fill="none" stroke="black" points="728.88,-89 728.88,-125 871.88,-125 871.88,-89 728.88,-89"/>
<text text-anchor="middle" x="782.25" y="-101.2" font-family="Helvetica,Arial,sans-serif" font-size="14.00">address&#45;fund&#45;a</text>
<polyline fill="none" stroke="black" points="835.62,-89 835.62,-125"/>
<text text-anchor="middle" x="853.75" y="-101.2" font-family="Helvetica,Arial,sans-serif" font-size="14.00">? ₳</text>
</g>
<!-- commit&#45;a&#45;&gt;change&#45;fund&#45;a -->
<g id="edge11" class="edge">
<title>commit&#45;a&#45;&gt;change&#45;fund&#45;a</title>
<path fill="none" stroke="black" d="M640.89,-134.01C663.99,-130.07 691.63,-125.36 717.32,-120.98"/>
<polygon fill="black" stroke="black" points="717.81,-124.45 727.08,-119.32 716.64,-117.55 717.81,-124.45"/>
</g>
<!-- collect&#45;com&#45;a -->
<g id="node12" class="node">
<title>collect&#45;com&#45;a</title>
<path fill="none" stroke="black" d="M972.25,-108.5C972.25,-108.5 1048.25,-108.5 1048.25,-108.5 1054.25,-108.5 1060.25,-114.5 1060.25,-120.5 1060.25,-120.5 1060.25,-165.5 1060.25,-165.5 1060.25,-171.5 1054.25,-177.5 1048.25,-177.5 1048.25,-177.5 972.25,-177.5 972.25,-177.5 966.25,-177.5 960.25,-171.5 960.25,-165.5 960.25,-165.5 960.25,-120.5 960.25,-120.5 960.25,-114.5 966.25,-108.5 972.25,-108.5"/>
<text text-anchor="middle" x="1010.25" y="-160.2" font-family="Helvetica,Arial,sans-serif" font-size="14.00">collect&#45;com&#45;tx</text>
<polyline fill="none" stroke="black" points="960.25,-154.5 1060.25,-154.5"/>
<text text-anchor="middle" x="1010.25" y="-137.2" font-family="Helvetica,Arial,sans-serif" font-size="14.00">σ(FundA)</text>
<polyline fill="none" stroke="black" points="960.25,-131.5 1060.25,-131.5"/>
<text text-anchor="middle" x="1010.25" y="-114.2" font-family="Helvetica,Arial,sans-serif" font-size="14.00"> </text>
</g>
<!-- commit&#45;output&#45;a&#45;&gt;collect&#45;com&#45;a -->
<g id="edge13" class="edge">
<title>commit&#45;output&#45;a&#45;&gt;collect&#45;com&#45;a</title>
<path fill="none" stroke="black" d="M924.7,-157.64C933.04,-156.2 941.21,-154.78 948.98,-153.44"/>
<polygon fill="black" stroke="black" points="949.3,-156.93 958.56,-151.78 948.11,-150.04 949.3,-156.93"/>
<text text-anchor="middle" x="915.05" y="-138.22" font-family="Helvetica,Arial,sans-serif" font-size="14.00">ViaCollectCom</text>
</g>
<!-- change&#45;fund&#45;a&#45;&gt;collect&#45;com&#45;a -->
<g id="edge12" class="edge">
<title>change&#45;fund&#45;a&#45;&gt;collect&#45;com&#45;a</title>
<path fill="none" stroke="black" d="M872.33,-119.29C897.21,-123.6 924.9,-128.39 948.83,-132.54"/>
<polygon fill="black" stroke="black" points="947.95,-135.94 958.4,-134.19 949.14,-129.04 947.95,-135.94"/>
</g>
<!-- head&#45;output&#45;a -->
<g id="node13" class="node">
<title>head&#45;output&#45;a</title>
<polygon fill="none" stroke="black" points="1096.25,-144.5 1096.25,-213.5 1344,-213.5 1344,-144.5 1096.25,-144.5"/>
<text text-anchor="middle" x="1220.12" y="-196.2" font-family="Helvetica,Arial,sans-serif" font-size="14.00">ν_head</text>
<polyline fill="none" stroke="black" points="1096.25,-190.5 1344,-190.5"/>
<text text-anchor="middle" x="1220.12" y="-173.2" font-family="Helvetica,Arial,sans-serif" font-size="14.00">12 ₳ + 1 headId.pkhFund + 1 pid.pkhA</text>
<polyline fill="none" stroke="black" points="1096.25,-167.5 1344,-167.5"/>
<text text-anchor="middle" x="1220.12" y="-150.2" font-family="Helvetica,Arial,sans-serif" font-size="14.00">head_state</text>
</g>
<!-- collect&#45;com&#45;a&#45;&gt;head&#45;output&#45;a -->
<g id="edge14" class="edge">
<title>collect&#45;com&#45;a&#45;&gt;head&#45;output&#45;a</title>
<path fill="none" stroke="black" d="M1060.51,-151.53C1068.11,-152.85 1076.25,-154.26 1084.69,-155.72"/>
<polygon fill="black" stroke="black" points="1083.98,-159.15 1094.43,-157.41 1085.18,-152.25 1083.98,-159.15"/>
</g>
<!-- change&#45;fund&#45;1&#45;a -->
<g id="node14" class="node">
<title>change&#45;fund&#45;1&#45;a</title>
<polygon fill="none" stroke="black" points="1148.62,-89 1148.62,-125 1291.62,-125 1291.62,-89 1148.62,-89"/>
<text text-anchor="middle" x="1202" y="-101.2" font-family="Helvetica,Arial,sans-serif" font-size="14.00">address&#45;fund&#45;a</text>
<polyline fill="none" stroke="black" points="1255.38,-89 1255.38,-125"/>
<text text-anchor="middle" x="1273.5" y="-101.2" font-family="Helvetica,Arial,sans-serif" font-size="14.00">? ₳</text>
</g>
<!-- collect&#45;com&#45;a&#45;&gt;change&#45;fund&#45;1&#45;a -->
<g id="edge15" class="edge">
<title>collect&#45;com&#45;a&#45;&gt;change&#45;fund&#45;1&#45;a</title>
<path fill="none" stroke="black" d="M1060.51,-134.47C1083.31,-130.52 1111.02,-125.72 1136.86,-121.25"/>
<polygon fill="black" stroke="black" points="1137.43,-124.7 1146.69,-119.54 1136.24,-117.8 1137.43,-124.7"/>
</g>
<!-- close&#45;a -->
<g id="node15" class="node">
<title>close&#45;a</title>
<path fill="none" stroke="black" d="M1392,-144.5C1392,-144.5 1441,-144.5 1441,-144.5 1447,-144.5 1453,-150.5 1453,-156.5 1453,-156.5 1453,-201.5 1453,-201.5 1453,-207.5 1447,-213.5 1441,-213.5 1441,-213.5 1392,-213.5 1392,-213.5 1386,-213.5 1380,-207.5 1380,-201.5 1380,-201.5 1380,-156.5 1380,-156.5 1380,-150.5 1386,-144.5 1392,-144.5"/>
<text text-anchor="middle" x="1416.5" y="-196.2" font-family="Helvetica,Arial,sans-serif" font-size="14.00">close&#45;tx</text>
<polyline fill="none" stroke="black" points="1380,-190.5 1453,-190.5"/>
<text text-anchor="middle" x="1416.5" y="-173.2" font-family="Helvetica,Arial,sans-serif" font-size="14.00">σ(FundA)</text>
<polyline fill="none" stroke="black" points="1380,-167.5 1453,-167.5"/>
<text text-anchor="middle" x="1416.5" y="-150.2" font-family="Helvetica,Arial,sans-serif" font-size="14.00"> </text>
</g>
<!-- head&#45;output&#45;a&#45;&gt;close&#45;a -->
<g id="edge16" class="edge">
<title>head&#45;output&#45;a&#45;&gt;close&#45;a</title>
<path fill="none" stroke="black" d="M1344.23,-179C1352.63,-179 1360.76,-179 1368.33,-179"/>
<polygon fill="black" stroke="black" points="1368.21,-182.5 1378.21,-179 1368.21,-175.5 1368.21,-182.5"/>
</g>
<!-- fanout&#45;a -->
<g id="node16" class="node">
<title>fanout&#45;a</title>
<path fill="none" stroke="black" d="M1501,-144.5C1501,-144.5 1550,-144.5 1550,-144.5 1556,-144.5 1562,-150.5 1562,-156.5 1562,-156.5 1562,-201.5 1562,-201.5 1562,-207.5 1556,-213.5 1550,-213.5 1550,-213.5 1501,-213.5 1501,-213.5 1495,-213.5 1489,-207.5 1489,-201.5 1489,-201.5 1489,-156.5 1489,-156.5 1489,-150.5 1495,-144.5 1501,-144.5"/>
<text text-anchor="middle" x="1525.5" y="-196.2" font-family="Helvetica,Arial,sans-serif" font-size="14.00">fanout&#45;tx</text>
<polyline fill="none" stroke="black" points="1489,-190.5 1562,-190.5"/>
<text text-anchor="middle" x="1525.5" y="-173.2" font-family="Helvetica,Arial,sans-serif" font-size="14.00">σ(FundA)</text>
<polyline fill="none" stroke="black" points="1489,-167.5 1562,-167.5"/>
<text text-anchor="middle" x="1525.5" y="-150.2" font-family="Helvetica,Arial,sans-serif" font-size="14.00"> </text>
</g>
<!-- close&#45;a&#45;&gt;fanout&#45;a -->
<g id="edge17" class="edge">
<title>close&#45;a&#45;&gt;fanout&#45;a</title>
<path fill="none" stroke="black" stroke-dasharray="5,2" d="M1453.43,-179C1461.18,-179 1469.5,-179 1477.6,-179"/>
<polygon fill="black" stroke="black" points="1477.34,-182.5 1487.34,-179 1477.34,-175.5 1477.34,-182.5"/>
</g>
<!-- token&#45;head&#45;a -->
<g id="node17" class="node">
<title>token&#45;head&#45;a</title>
<polygon fill="none" stroke="black" points="1616.5,-180.5 1616.5,-249.5 1732.25,-249.5 1732.25,-180.5 1616.5,-180.5"/>
<text text-anchor="middle" x="1674.38" y="-232.2" font-family="Helvetica,Arial,sans-serif" font-size="14.00">elo&#45;script</text>
<polyline fill="none" stroke="black" points="1616.5,-226.5 1732.25,-226.5"/>
<text text-anchor="middle" x="1674.38" y="-209.2" font-family="Helvetica,Arial,sans-serif" font-size="14.00">2 ₳ + 1 pid.pkhA</text>
<polyline fill="none" stroke="black" points="1616.5,-203.5 1732.25,-203.5"/>
<text text-anchor="middle" x="1674.38" y="-186.2" font-family="Helvetica,Arial,sans-serif" font-size="14.00">900</text>
</g>
<!-- fanout&#45;a&#45;&gt;token&#45;head&#45;a -->
<g id="edge18" class="edge">
<title>fanout&#45;a&#45;&gt;token&#45;head&#45;a</title>
<path fill="none" stroke="black" d="M1562.43,-187.81C1575.29,-190.96 1590.24,-194.62 1604.93,-198.22"/>
<polygon fill="black" stroke="black" points="1604.06,-201.61 1614.6,-200.59 1605.72,-194.81 1604.06,-201.61"/>
</g>
<!-- collateral&#45;head&#45;a -->
<g id="node18" class="node">
<title>collateral&#45;head&#45;a</title>
<polygon fill="none" stroke="black" points="1598,-125 1598,-161 1750.75,-161 1750.75,-125 1598,-125"/>
<text text-anchor="middle" x="1656.25" y="-137.2" font-family="Helvetica,Arial,sans-serif" font-size="14.00">game&#45;address&#45;A</text>
<polyline fill="none" stroke="black" points="1714.5,-125 1714.5,-161"/>
<text text-anchor="middle" x="1732.62" y="-137.2" font-family="Helvetica,Arial,sans-serif" font-size="14.00">8 ₳</text>
</g>
<!-- fanout&#45;a&#45;&gt;collateral&#45;head&#45;a -->
<g id="edge19" class="edge">
<title>fanout&#45;a&#45;&gt;collateral&#45;head&#45;a</title>
<path fill="none" stroke="black" d="M1562.43,-170.19C1570.07,-168.32 1578.46,-166.26 1587.09,-164.15"/>
<polygon fill="black" stroke="black" points="1587.76,-167.59 1596.64,-161.81 1586.09,-160.79 1587.76,-167.59"/>
</g>
</g>
</svg>
