<?xml version="1.0" encoding="UTF-8" standalone="no"?>
<!DOCTYPE svg PUBLIC "-//W3C//DTD SVG 1.1//EN"
 "http://www.w3.org/Graphics/SVG/1.1/DTD/svg11.dtd">
<!-- Generated by graphviz version 12.2.0 (20241103.1931)
 -->
<!-- Title: chess_transactions Pages: 1 -->
<svg width="917pt" height="1129pt"
 viewBox="0.00 0.00 916.50 1129.00" xmlns="http://www.w3.org/2000/svg" xmlns:xlink="http://www.w3.org/1999/xlink">
<g id="graph0" class="graph" transform="scale(1 1) rotate(0) translate(4 1125)">
<title>chess_transactions</title>
<polygon fill="white" stroke="none" points="-4,4 -4,-1125 912.5,-1125 912.5,4 -4,4"/>
<!-- collateral&#45;a -->
<g id="node1" class="node">
<title>collateral&#45;a</title>
<polygon fill="none" stroke="black" points="0,-1051.5 0,-1120.5 116.5,-1120.5 116.5,-1051.5 0,-1051.5"/>
<text text-anchor="middle" x="58.25" y="-1103.2" font-family="Helvetica,Arial,sans-serif" font-size="14.00">game&#45;address&#45;A</text>
<polyline fill="none" stroke="black" points="0,-1097.5 116.5,-1097.5"/>
<text text-anchor="middle" x="58.25" y="-1080.2" font-family="Helvetica,Arial,sans-serif" font-size="14.00">8 ₳</text>
<polyline fill="none" stroke="black" points="0,-1074.5 116.5,-1074.5"/>
<text text-anchor="middle" x="58.25" y="-1057.2" font-family="Helvetica,Arial,sans-serif" font-size="14.00"> </text>
</g>
<!-- new&#45;game -->
<g id="node5" class="node">
<title>new&#45;game</title>
<path fill="none" stroke="black" d="M164.38,-968.5C164.38,-968.5 220.12,-968.5 220.12,-968.5 226.12,-968.5 232.12,-974.5 232.12,-980.5 232.12,-980.5 232.12,-1002.5 232.12,-1002.5 232.12,-1008.5 226.12,-1014.5 220.12,-1014.5 220.12,-1014.5 164.38,-1014.5 164.38,-1014.5 158.38,-1014.5 152.38,-1008.5 152.38,-1002.5 152.38,-1002.5 152.38,-980.5 152.38,-980.5 152.38,-974.5 158.38,-968.5 164.38,-968.5"/>
<text text-anchor="middle" x="192.25" y="-997.2" font-family="Helvetica,Arial,sans-serif" font-size="14.00">new&#45;game</text>
<polyline fill="none" stroke="black" points="152.38,-991.5 232.12,-991.5"/>
<text text-anchor="middle" x="192.25" y="-974.2" font-family="Helvetica,Arial,sans-serif" font-size="14.00">σ(A)</text>
</g>
<!-- collateral&#45;a&#45;&gt;new&#45;game -->
<g id="edge1" class="edge">
<title>collateral&#45;a&#45;&gt;new&#45;game</title>
<path fill="none" stroke="black" d="M107.39,-1051.08C121.59,-1041.28 136.94,-1030.68 150.64,-1021.22"/>
<polygon fill="black" stroke="black" points="152.33,-1024.31 158.57,-1015.75 148.36,-1018.55 152.33,-1024.31"/>
</g>
<!-- game&#45;token&#45;1&#45;a -->
<g id="node2" class="node">
<title>game&#45;token&#45;1&#45;a</title>
<polygon fill="none" stroke="black" points="134.38,-1051.5 134.38,-1120.5 250.12,-1120.5 250.12,-1051.5 134.38,-1051.5"/>
<text text-anchor="middle" x="192.25" y="-1103.2" font-family="Helvetica,Arial,sans-serif" font-size="14.00">elo&#45;script</text>
<polyline fill="none" stroke="black" points="134.38,-1097.5 250.12,-1097.5"/>
<text text-anchor="middle" x="192.25" y="-1080.2" font-family="Helvetica,Arial,sans-serif" font-size="14.00">2 ₳ + 1 pid.pkhA</text>
<polyline fill="none" stroke="black" points="134.38,-1074.5 250.12,-1074.5"/>
<text text-anchor="middle" x="192.25" y="-1057.2" font-family="Helvetica,Arial,sans-serif" font-size="14.00">1000</text>
</g>
<!-- game&#45;token&#45;1&#45;a&#45;&gt;new&#45;game -->
<g id="edge2" class="edge">
<title>game&#45;token&#45;1&#45;a&#45;&gt;new&#45;game</title>
<path fill="none" stroke="black" d="M192.25,-1051.08C192.25,-1042.98 192.25,-1034.32 192.25,-1026.23"/>
<polygon fill="black" stroke="black" points="195.75,-1026.4 192.25,-1016.4 188.75,-1026.4 195.75,-1026.4"/>
<text text-anchor="middle" x="187.75" y="-1037.78" font-family="Helvetica,Arial,sans-serif" font-size="14.00">()</text>
</g>
<!-- collateral&#45;b -->
<g id="node3" class="node">
<title>collateral&#45;b</title>
<polygon fill="none" stroke="black" points="395,-673.5 395,-742.5 511.5,-742.5 511.5,-673.5 395,-673.5"/>
<text text-anchor="middle" x="453.25" y="-725.2" font-family="Helvetica,Arial,sans-serif" font-size="14.00">game&#45;address&#45;B</text>
<polyline fill="none" stroke="black" points="395,-719.5 511.5,-719.5"/>
<text text-anchor="middle" x="453.25" y="-702.2" font-family="Helvetica,Arial,sans-serif" font-size="14.00">8 ₳</text>
<polyline fill="none" stroke="black" points="395,-696.5 511.5,-696.5"/>
<text text-anchor="middle" x="453.25" y="-679.2" font-family="Helvetica,Arial,sans-serif" font-size="14.00"> </text>
</g>
<!-- play&#45;2 -->
<g id="node11" class="node">
<title>play&#45;2</title>
<path fill="none" stroke="black" d="M351.25,-590.5C351.25,-590.5 381.25,-590.5 381.25,-590.5 387.25,-590.5 393.25,-596.5 393.25,-602.5 393.25,-602.5 393.25,-624.5 393.25,-624.5 393.25,-630.5 387.25,-636.5 381.25,-636.5 381.25,-636.5 351.25,-636.5 351.25,-636.5 345.25,-636.5 339.25,-630.5 339.25,-624.5 339.25,-624.5 339.25,-602.5 339.25,-602.5 339.25,-596.5 345.25,-590.5 351.25,-590.5"/>
<text text-anchor="middle" x="365.88" y="-619.2" font-family="Helvetica,Arial,sans-serif" font-size="14.00">play</text>
<polyline fill="none" stroke="black" points="339.25,-613.5 392.5,-613.5"/>
<text text-anchor="middle" x="365.88" y="-596.2" font-family="Helvetica,Arial,sans-serif" font-size="14.00">σ(B)</text>
</g>
<!-- collateral&#45;b&#45;&gt;play&#45;2 -->
<g id="edge10" class="edge">
<title>collateral&#45;b&#45;&gt;play&#45;2</title>
<path fill="none" stroke="black" d="M421.35,-673.08C412.75,-663.94 403.5,-654.1 395.08,-645.15"/>
<polygon fill="black" stroke="black" points="397.74,-642.88 388.34,-637.99 392.64,-647.67 397.74,-642.88"/>
</g>
<!-- game&#45;token&#45;1&#45;b -->
<g id="node4" class="node">
<title>game&#45;token&#45;1&#45;b</title>
<polygon fill="none" stroke="black" points="268.38,-1051.5 268.38,-1120.5 384.12,-1120.5 384.12,-1051.5 268.38,-1051.5"/>
<text text-anchor="middle" x="326.25" y="-1103.2" font-family="Helvetica,Arial,sans-serif" font-size="14.00">elo&#45;script</text>
<polyline fill="none" stroke="black" points="268.38,-1097.5 384.12,-1097.5"/>
<text text-anchor="middle" x="326.25" y="-1080.2" font-family="Helvetica,Arial,sans-serif" font-size="14.00">2 ₳ + 1 pid.pkhB</text>
<polyline fill="none" stroke="black" points="268.38,-1074.5 384.12,-1074.5"/>
<text text-anchor="middle" x="326.25" y="-1057.2" font-family="Helvetica,Arial,sans-serif" font-size="14.00">1000</text>
</g>
<!-- game&#45;token&#45;1&#45;b&#45;&gt;new&#45;game -->
<g id="edge3" class="edge">
<title>game&#45;token&#45;1&#45;b&#45;&gt;new&#45;game</title>
<path fill="none" stroke="black" d="M277.11,-1051.08C262.91,-1041.28 247.56,-1030.68 233.86,-1021.22"/>
<polygon fill="black" stroke="black" points="236.14,-1018.55 225.93,-1015.75 232.17,-1024.31 236.14,-1018.55"/>
<text text-anchor="middle" x="272.61" y="-1037.78" font-family="Helvetica,Arial,sans-serif" font-size="14.00">()</text>
</g>
<!-- collateral&#45;a&#45;1 -->
<g id="node6" class="node">
<title>collateral&#45;a&#45;1</title>
<polygon fill="none" stroke="black" points="47,-862.5 47,-931.5 163.5,-931.5 163.5,-862.5 47,-862.5"/>
<text text-anchor="middle" x="105.25" y="-914.2" font-family="Helvetica,Arial,sans-serif" font-size="14.00">game&#45;address&#45;A</text>
<polyline fill="none" stroke="black" points="47,-908.5 163.5,-908.5"/>
<text text-anchor="middle" x="105.25" y="-891.2" font-family="Helvetica,Arial,sans-serif" font-size="14.00">8 ₳</text>
<polyline fill="none" stroke="black" points="47,-885.5 163.5,-885.5"/>
<text text-anchor="middle" x="105.25" y="-868.2" font-family="Helvetica,Arial,sans-serif" font-size="14.00"> </text>
</g>
<!-- new&#45;game&#45;&gt;collateral&#45;a&#45;1 -->
<g id="edge4" class="edge">
<title>new&#45;game&#45;&gt;collateral&#45;a&#45;1</title>
<path fill="none" stroke="black" d="M171.19,-968.11C163.26,-959.67 153.95,-949.78 144.87,-940.12"/>
<polygon fill="black" stroke="black" points="147.43,-937.74 138.03,-932.85 142.33,-942.53 147.43,-937.74"/>
</g>
<!-- game&#45;state&#45;1 -->
<g id="node7" class="node">
<title>game&#45;state&#45;1</title>
<polygon fill="none" stroke="black" points="181.62,-862.5 181.62,-931.5 376.88,-931.5 376.88,-862.5 181.62,-862.5"/>
<text text-anchor="middle" x="279.25" y="-914.2" font-family="Helvetica,Arial,sans-serif" font-size="14.00">game&#45;script</text>
<polyline fill="none" stroke="black" points="181.62,-908.5 376.88,-908.5"/>
<text text-anchor="middle" x="279.25" y="-891.2" font-family="Helvetica,Arial,sans-serif" font-size="14.00">4 ₳ + 1 pid.pkhA + 1 pid.pkhB</text>
<polyline fill="none" stroke="black" points="181.62,-885.5 376.88,-885.5"/>
<text text-anchor="middle" x="237" y="-868.2" font-family="Helvetica,Arial,sans-serif" font-size="14.00">initial</text>
<polyline fill="none" stroke="black" points="292.38,-862.5 292.38,-885.5"/>
<text text-anchor="middle" x="334.25" y="-868.2" font-family="Helvetica,Arial,sans-serif" font-size="14.00"> </text>
</g>
<!-- new&#45;game&#45;&gt;game&#45;state&#45;1 -->
<g id="edge5" class="edge">
<title>new&#45;game&#45;&gt;game&#45;state&#45;1</title>
<path fill="none" stroke="black" d="M213.31,-968.11C221.24,-959.67 230.55,-949.78 239.63,-940.12"/>
<polygon fill="black" stroke="black" points="242.17,-942.53 246.47,-932.85 237.07,-937.74 242.17,-942.53"/>
</g>
<!-- play&#45;1 -->
<g id="node8" class="node">
<title>play&#45;1</title>
<path fill="none" stroke="black" d="M177.25,-779.5C177.25,-779.5 207.25,-779.5 207.25,-779.5 213.25,-779.5 219.25,-785.5 219.25,-791.5 219.25,-791.5 219.25,-813.5 219.25,-813.5 219.25,-819.5 213.25,-825.5 207.25,-825.5 207.25,-825.5 177.25,-825.5 177.25,-825.5 171.25,-825.5 165.25,-819.5 165.25,-813.5 165.25,-813.5 165.25,-791.5 165.25,-791.5 165.25,-785.5 171.25,-779.5 177.25,-779.5"/>
<text text-anchor="middle" x="191.88" y="-808.2" font-family="Helvetica,Arial,sans-serif" font-size="14.00">play</text>
<polyline fill="none" stroke="black" points="165.25,-802.5 218.5,-802.5"/>
<text text-anchor="middle" x="191.88" y="-785.2" font-family="Helvetica,Arial,sans-serif" font-size="14.00">σ(A)</text>
</g>
<!-- collateral&#45;a&#45;1&#45;&gt;play&#45;1 -->
<g id="edge6" class="edge">
<title>collateral&#45;a&#45;1&#45;&gt;play&#45;1</title>
<path fill="none" stroke="black" d="M137.15,-862.08C145.75,-852.94 155,-843.1 163.42,-834.15"/>
<polygon fill="black" stroke="black" points="165.86,-836.67 170.16,-826.99 160.76,-831.88 165.86,-836.67"/>
</g>
<!-- game&#45;state&#45;1&#45;&gt;play&#45;1 -->
<g id="edge7" class="edge">
<title>game&#45;state&#45;1&#45;&gt;play&#45;1</title>
<path fill="none" stroke="black" d="M247.35,-862.08C238.75,-852.94 229.5,-843.1 221.08,-834.15"/>
<polygon fill="black" stroke="black" points="223.74,-831.88 214.34,-826.99 218.64,-836.67 223.74,-831.88"/>
<text text-anchor="middle" x="230.1" y="-848.78" font-family="Helvetica,Arial,sans-serif" font-size="14.00">e2&#45;e4</text>
</g>
<!-- collateral&#45;a&#45;2 -->
<g id="node9" class="node">
<title>collateral&#45;a&#45;2</title>
<polygon fill="none" stroke="black" points="47,-673.5 47,-742.5 163.5,-742.5 163.5,-673.5 47,-673.5"/>
<text text-anchor="middle" x="105.25" y="-725.2" font-family="Helvetica,Arial,sans-serif" font-size="14.00">game&#45;address&#45;A</text>
<polyline fill="none" stroke="black" points="47,-719.5 163.5,-719.5"/>
<text text-anchor="middle" x="105.25" y="-702.2" font-family="Helvetica,Arial,sans-serif" font-size="14.00">8 ₳</text>
<polyline fill="none" stroke="black" points="47,-696.5 163.5,-696.5"/>
<text text-anchor="middle" x="105.25" y="-679.2" font-family="Helvetica,Arial,sans-serif" font-size="14.00"> </text>
</g>
<!-- play&#45;1&#45;&gt;collateral&#45;a&#45;2 -->
<g id="edge9" class="edge">
<title>play&#45;1&#45;&gt;collateral&#45;a&#45;2</title>
<path fill="none" stroke="black" d="M171.19,-779.11C163.26,-770.67 153.95,-760.78 144.87,-751.12"/>
<polygon fill="black" stroke="black" points="147.43,-748.74 138.03,-743.85 142.33,-753.53 147.43,-748.74"/>
</g>
<!-- game&#45;state&#45;2 -->
<g id="node10" class="node">
<title>game&#45;state&#45;2</title>
<polygon fill="none" stroke="black" points="181.62,-673.5 181.62,-742.5 376.88,-742.5 376.88,-673.5 181.62,-673.5"/>
<text text-anchor="middle" x="279.25" y="-725.2" font-family="Helvetica,Arial,sans-serif" font-size="14.00">game&#45;script</text>
<polyline fill="none" stroke="black" points="181.62,-719.5 376.88,-719.5"/>
<text text-anchor="middle" x="279.25" y="-702.2" font-family="Helvetica,Arial,sans-serif" font-size="14.00">4 ₳ + 1 pid.pkhA + 1 pid.pkhB</text>
<polyline fill="none" stroke="black" points="181.62,-696.5 376.88,-696.5"/>
<text text-anchor="middle" x="229.5" y="-679.2" font-family="Helvetica,Arial,sans-serif" font-size="14.00">initial</text>
<polyline fill="none" stroke="black" points="277.38,-673.5 277.38,-696.5"/>
<text text-anchor="middle" x="327.12" y="-679.2" font-family="Helvetica,Arial,sans-serif" font-size="14.00">e2&#45;e4</text>
</g>
<!-- play&#45;1&#45;&gt;game&#45;state&#45;2 -->
<g id="edge8" class="edge">
<title>play&#45;1&#45;&gt;game&#45;state&#45;2</title>
<path fill="none" stroke="black" d="M213.31,-779.11C221.24,-770.67 230.55,-760.78 239.63,-751.12"/>
<polygon fill="black" stroke="black" points="242.17,-753.53 246.47,-743.85 237.07,-748.74 242.17,-753.53"/>
</g>
<!-- game&#45;state&#45;2&#45;&gt;play&#45;2 -->
<g id="edge11" class="edge">
<title>game&#45;state&#45;2&#45;&gt;play&#45;2</title>
<path fill="none" stroke="black" d="M311.15,-673.08C319.75,-663.94 329,-654.1 337.42,-645.15"/>
<polygon fill="black" stroke="black" points="339.86,-647.67 344.16,-637.99 334.76,-642.88 339.86,-647.67"/>
<text text-anchor="middle" x="293.9" y="-659.78" font-family="Helvetica,Arial,sans-serif" font-size="14.00">e7&#45;e5</text>
</g>
<!-- collateral&#45;b&#45;2 -->
<g id="node12" class="node">
<title>collateral&#45;b&#45;2</title>
<polygon fill="none" stroke="black" points="221,-484.5 221,-553.5 337.5,-553.5 337.5,-484.5 221,-484.5"/>
<text text-anchor="middle" x="279.25" y="-536.2" font-family="Helvetica,Arial,sans-serif" font-size="14.00">game&#45;address&#45;B</text>
<polyline fill="none" stroke="black" points="221,-530.5 337.5,-530.5"/>
<text text-anchor="middle" x="279.25" y="-513.2" font-family="Helvetica,Arial,sans-serif" font-size="14.00">8 ₳</text>
<polyline fill="none" stroke="black" points="221,-507.5 337.5,-507.5"/>
<text text-anchor="middle" x="279.25" y="-490.2" font-family="Helvetica,Arial,sans-serif" font-size="14.00"> </text>
</g>
<!-- play&#45;2&#45;&gt;collateral&#45;b&#45;2 -->
<g id="edge13" class="edge">
<title>play&#45;2&#45;&gt;collateral&#45;b&#45;2</title>
<path fill="none" stroke="black" d="M345.19,-590.11C337.26,-581.67 327.95,-571.78 318.87,-562.12"/>
<polygon fill="black" stroke="black" points="321.43,-559.74 312.03,-554.85 316.33,-564.53 321.43,-559.74"/>
</g>
<!-- game&#45;state&#45;3 -->
<g id="node13" class="node">
<title>game&#45;state&#45;3</title>
<polygon fill="none" stroke="black" points="355.62,-484.5 355.62,-553.5 550.88,-553.5 550.88,-484.5 355.62,-484.5"/>
<text text-anchor="middle" x="453.25" y="-536.2" font-family="Helvetica,Arial,sans-serif" font-size="14.00">game&#45;script</text>
<polyline fill="none" stroke="black" points="355.62,-530.5 550.88,-530.5"/>
<text text-anchor="middle" x="453.25" y="-513.2" font-family="Helvetica,Arial,sans-serif" font-size="14.00">4 ₳ + 1 pid.pkhA + 1 pid.pkhB</text>
<polyline fill="none" stroke="black" points="355.62,-507.5 550.88,-507.5"/>
<text text-anchor="middle" x="393" y="-490.2" font-family="Helvetica,Arial,sans-serif" font-size="14.00">initial</text>
<polyline fill="none" stroke="black" points="430.38,-484.5 430.38,-507.5"/>
<text text-anchor="middle" x="490.62" y="-490.2" font-family="Helvetica,Arial,sans-serif" font-size="14.00">e2&#45;e4. e7&#45;e5</text>
</g>
<!-- play&#45;2&#45;&gt;game&#45;state&#45;3 -->
<g id="edge12" class="edge">
<title>play&#45;2&#45;&gt;game&#45;state&#45;3</title>
<path fill="none" stroke="black" d="M387.31,-590.11C395.24,-581.67 404.55,-571.78 413.63,-562.12"/>
<polygon fill="black" stroke="black" points="416.17,-564.53 420.47,-554.85 411.07,-559.74 416.17,-564.53"/>
</g>
<!-- game&#45;state&#45;n -->
<g id="node14" class="node">
<title>game&#45;state&#45;n</title>
<polygon fill="none" stroke="black" points="354.38,-378.5 354.38,-447.5 552.12,-447.5 552.12,-378.5 354.38,-378.5"/>
<text text-anchor="middle" x="453.25" y="-430.2" font-family="Helvetica,Arial,sans-serif" font-size="14.00">game&#45;script</text>
<polyline fill="none" stroke="black" points="354.38,-424.5 552.12,-424.5"/>
<text text-anchor="middle" x="453.25" y="-407.2" font-family="Helvetica,Arial,sans-serif" font-size="14.00">4 ₳ + 1 pid.pkhA + 1 pid.pkhB</text>
<polyline fill="none" stroke="black" points="354.38,-401.5 552.12,-401.5"/>
<text text-anchor="middle" x="397.62" y="-384.2" font-family="Helvetica,Arial,sans-serif" font-size="14.00">check&#45;mate</text>
<polyline fill="none" stroke="black" points="440.88,-378.5 440.88,-401.5"/>
<text text-anchor="middle" x="496.5" y="-384.2" font-family="Helvetica,Arial,sans-serif" font-size="14.00">e2&#45;e4. e7&#45;e5. ...</text>
</g>
<!-- game&#45;state&#45;3&#45;&gt;game&#45;state&#45;n -->
<g id="edge14" class="edge">
<title>game&#45;state&#45;3&#45;&gt;game&#45;state&#45;n</title>
<path fill="none" stroke="black" stroke-dasharray="1,5" d="M453.25,-484.23C453.25,-476.24 453.25,-467.59 453.25,-459.18"/>
<polygon fill="black" stroke="black" points="456.75,-459.47 453.25,-449.47 449.75,-459.47 456.75,-459.47"/>
</g>
<!-- end&#45;game&#45;a -->
<g id="node19" class="node">
<title>end&#45;game&#45;a</title>
<path fill="none" stroke="black" d="M513.5,-295.5C513.5,-295.5 567,-295.5 567,-295.5 573,-295.5 579,-301.5 579,-307.5 579,-307.5 579,-329.5 579,-329.5 579,-335.5 573,-341.5 567,-341.5 567,-341.5 513.5,-341.5 513.5,-341.5 507.5,-341.5 501.5,-335.5 501.5,-329.5 501.5,-329.5 501.5,-307.5 501.5,-307.5 501.5,-301.5 507.5,-295.5 513.5,-295.5"/>
<text text-anchor="middle" x="540.25" y="-324.2" font-family="Helvetica,Arial,sans-serif" font-size="14.00">end&#45;game</text>
<polyline fill="none" stroke="black" points="501.5,-318.5 579,-318.5"/>
<text text-anchor="middle" x="540.25" y="-301.2" font-family="Helvetica,Arial,sans-serif" font-size="14.00">σ(A)</text>
</g>
<!-- game&#45;state&#45;n&#45;&gt;end&#45;game&#45;a -->
<g id="edge15" class="edge">
<title>game&#45;state&#45;n&#45;&gt;end&#45;game&#45;a</title>
<path fill="none" stroke="black" d="M485.15,-378.08C493.75,-368.94 503,-359.1 511.42,-350.15"/>
<polygon fill="black" stroke="black" points="513.86,-352.67 518.16,-342.99 508.76,-347.88 513.86,-352.67"/>
<text text-anchor="middle" x="473.15" y="-364.78" font-family="Helvetica,Arial,sans-serif" font-size="14.00">End</text>
</g>
<!-- collateral&#45;a&#45;n -->
<g id="node15" class="node">
<title>collateral&#45;a&#45;n</title>
<polygon fill="none" stroke="black" points="570,-378.5 570,-447.5 686.5,-447.5 686.5,-378.5 570,-378.5"/>
<text text-anchor="middle" x="628.25" y="-430.2" font-family="Helvetica,Arial,sans-serif" font-size="14.00">game&#45;address&#45;A</text>
<polyline fill="none" stroke="black" points="570,-424.5 686.5,-424.5"/>
<text text-anchor="middle" x="628.25" y="-407.2" font-family="Helvetica,Arial,sans-serif" font-size="14.00">8 ₳</text>
<polyline fill="none" stroke="black" points="570,-401.5 686.5,-401.5"/>
<text text-anchor="middle" x="628.25" y="-384.2" font-family="Helvetica,Arial,sans-serif" font-size="14.00"> </text>
</g>
<!-- collateral&#45;a&#45;n&#45;&gt;end&#45;game&#45;a -->
<g id="edge16" class="edge">
<title>collateral&#45;a&#45;n&#45;&gt;end&#45;game&#45;a</title>
<path fill="none" stroke="black" d="M595.98,-378.08C587.28,-368.94 577.92,-359.1 569.41,-350.15"/>
<polygon fill="black" stroke="black" points="572.02,-347.82 562.59,-342.98 566.95,-352.64 572.02,-347.82"/>
</g>
<!-- game&#45;token&#45;a&#45;n -->
<g id="node16" class="node">
<title>game&#45;token&#45;a&#45;n</title>
<polygon fill="none" stroke="black" points="307.38,-189.5 307.38,-258.5 423.12,-258.5 423.12,-189.5 307.38,-189.5"/>
<text text-anchor="middle" x="365.25" y="-241.2" font-family="Helvetica,Arial,sans-serif" font-size="14.00">elo&#45;script</text>
<polyline fill="none" stroke="black" points="307.38,-235.5 423.12,-235.5"/>
<text text-anchor="middle" x="365.25" y="-218.2" font-family="Helvetica,Arial,sans-serif" font-size="14.00">2 ₳ + 1 pid.pkhA</text>
<polyline fill="none" stroke="black" points="307.38,-212.5 423.12,-212.5"/>
<text text-anchor="middle" x="365.25" y="-195.2" font-family="Helvetica,Arial,sans-serif" font-size="14.00">1020</text>
</g>
<!-- game&#45;state&#45;n+1 -->
<g id="node17" class="node">
<title>game&#45;state&#45;n+1</title>
<polygon fill="none" stroke="black" points="441.38,-189.5 441.38,-258.5 639.12,-258.5 639.12,-189.5 441.38,-189.5"/>
<text text-anchor="middle" x="540.25" y="-241.2" font-family="Helvetica,Arial,sans-serif" font-size="14.00">game&#45;script</text>
<polyline fill="none" stroke="black" points="441.38,-235.5 639.12,-235.5"/>
<text text-anchor="middle" x="540.25" y="-218.2" font-family="Helvetica,Arial,sans-serif" font-size="14.00">2 ₳ + 1 pid.pkhB</text>
<polyline fill="none" stroke="black" points="441.38,-212.5 639.12,-212.5"/>
<text text-anchor="middle" x="484.62" y="-195.2" font-family="Helvetica,Arial,sans-serif" font-size="14.00">check&#45;mate</text>
<polyline fill="none" stroke="black" points="527.88,-189.5 527.88,-212.5"/>
<text text-anchor="middle" x="583.5" y="-195.2" font-family="Helvetica,Arial,sans-serif" font-size="14.00">e2&#45;e4. e7&#45;e5. ...</text>
</g>
<!-- end&#45;game&#45;b -->
<g id="node23" class="node">
<title>end&#45;game&#45;b</title>
<path fill="none" stroke="black" d="M668.5,-106.5C668.5,-106.5 722,-106.5 722,-106.5 728,-106.5 734,-112.5 734,-118.5 734,-118.5 734,-140.5 734,-140.5 734,-146.5 728,-152.5 722,-152.5 722,-152.5 668.5,-152.5 668.5,-152.5 662.5,-152.5 656.5,-146.5 656.5,-140.5 656.5,-140.5 656.5,-118.5 656.5,-118.5 656.5,-112.5 662.5,-106.5 668.5,-106.5"/>
<text text-anchor="middle" x="695.25" y="-135.2" font-family="Helvetica,Arial,sans-serif" font-size="14.00">end&#45;game</text>
<polyline fill="none" stroke="black" points="656.5,-129.5 734,-129.5"/>
<text text-anchor="middle" x="695.25" y="-112.2" font-family="Helvetica,Arial,sans-serif" font-size="14.00">σ(B)</text>
</g>
<!-- game&#45;state&#45;n+1&#45;&gt;end&#45;game&#45;b -->
<g id="edge20" class="edge">
<title>game&#45;state&#45;n+1&#45;&gt;end&#45;game&#45;b</title>
<path fill="none" stroke="black" d="M597.09,-189.08C613.83,-179.09 631.96,-168.27 648.03,-158.68"/>
<polygon fill="black" stroke="black" points="649.64,-161.79 656.44,-153.66 646.06,-155.78 649.64,-161.79"/>
<text text-anchor="middle" x="585.09" y="-175.78" font-family="Helvetica,Arial,sans-serif" font-size="14.00">End</text>
</g>
<!-- collateral&#45;a&#45;n+1 -->
<g id="node18" class="node">
<title>collateral&#45;a&#45;n+1</title>
<polygon fill="none" stroke="black" points="657,-189.5 657,-258.5 773.5,-258.5 773.5,-189.5 657,-189.5"/>
<text text-anchor="middle" x="715.25" y="-241.2" font-family="Helvetica,Arial,sans-serif" font-size="14.00">game&#45;address&#45;A</text>
<polyline fill="none" stroke="black" points="657,-235.5 773.5,-235.5"/>
<text text-anchor="middle" x="715.25" y="-218.2" font-family="Helvetica,Arial,sans-serif" font-size="14.00">8 ₳</text>
<polyline fill="none" stroke="black" points="657,-212.5 773.5,-212.5"/>
<text text-anchor="middle" x="715.25" y="-195.2" font-family="Helvetica,Arial,sans-serif" font-size="14.00"> </text>
</g>
<!-- end&#45;game&#45;a&#45;&gt;game&#45;token&#45;a&#45;n -->
<g id="edge18" class="edge">
<title>end&#45;game&#45;a&#45;&gt;game&#45;token&#45;a&#45;n</title>
<path fill="none" stroke="black" d="M501.41,-296.97C481.5,-286.45 456.66,-273.32 433.67,-261.16"/>
<polygon fill="black" stroke="black" points="435.42,-258.13 424.94,-256.55 432.15,-264.32 435.42,-258.13"/>
</g>
<!-- end&#45;game&#45;a&#45;&gt;game&#45;state&#45;n+1 -->
<g id="edge19" class="edge">
<title>end&#45;game&#45;a&#45;&gt;game&#45;state&#45;n+1</title>
<path fill="none" stroke="black" d="M540.25,-295.11C540.25,-287.52 540.25,-278.76 540.25,-270.06"/>
<polygon fill="black" stroke="black" points="543.75,-270.26 540.25,-260.26 536.75,-270.26 543.75,-270.26"/>
</g>
<!-- end&#45;game&#45;a&#45;&gt;collateral&#45;a&#45;n+1 -->
<g id="edge17" class="edge">
<title>end&#45;game&#45;a&#45;&gt;collateral&#45;a&#45;n+1</title>
<path fill="none" stroke="black" d="M579.09,-296.97C598.91,-286.49 623.62,-273.43 646.53,-261.32"/>
<polygon fill="black" stroke="black" points="648.02,-264.5 655.22,-256.73 644.74,-258.31 648.02,-264.5"/>
</g>
<!-- collateral&#45;b&#45;n -->
<g id="node20" class="node">
<title>collateral&#45;b&#45;n</title>
<polygon fill="none" stroke="black" points="792,-189.5 792,-258.5 908.5,-258.5 908.5,-189.5 792,-189.5"/>
<text text-anchor="middle" x="850.25" y="-241.2" font-family="Helvetica,Arial,sans-serif" font-size="14.00">game&#45;address&#45;B</text>
<polyline fill="none" stroke="black" points="792,-235.5 908.5,-235.5"/>
<text text-anchor="middle" x="850.25" y="-218.2" font-family="Helvetica,Arial,sans-serif" font-size="14.00">8 ₳</text>
<polyline fill="none" stroke="black" points="792,-212.5 908.5,-212.5"/>
<text text-anchor="middle" x="850.25" y="-195.2" font-family="Helvetica,Arial,sans-serif" font-size="14.00"> </text>
</g>
<!-- collateral&#45;b&#45;n&#45;&gt;end&#45;game&#45;b -->
<g id="edge21" class="edge">
<title>collateral&#45;b&#45;n&#45;&gt;end&#45;game&#45;b</title>
<path fill="none" stroke="black" d="M793.41,-189.08C776.67,-179.09 758.54,-168.27 742.47,-158.68"/>
<polygon fill="black" stroke="black" points="744.44,-155.78 734.06,-153.66 740.86,-161.79 744.44,-155.78"/>
</g>
<!-- game&#45;token&#45;b&#45;n -->
<g id="node21" class="node">
<title>game&#45;token&#45;b&#45;n</title>
<polygon fill="none" stroke="black" points="570.38,-0.5 570.38,-69.5 686.12,-69.5 686.12,-0.5 570.38,-0.5"/>
<text text-anchor="middle" x="628.25" y="-52.2" font-family="Helvetica,Arial,sans-serif" font-size="14.00">elo&#45;script</text>
<polyline fill="none" stroke="black" points="570.38,-46.5 686.12,-46.5"/>
<text text-anchor="middle" x="628.25" y="-29.2" font-family="Helvetica,Arial,sans-serif" font-size="14.00">2 ₳ + 1 pid.pkhB</text>
<polyline fill="none" stroke="black" points="570.38,-23.5 686.12,-23.5"/>
<text text-anchor="middle" x="628.25" y="-6.2" font-family="Helvetica,Arial,sans-serif" font-size="14.00">980</text>
</g>
<!-- collateral&#45;b&#45;n+1 -->
<g id="node22" class="node">
<title>collateral&#45;b&#45;n+1</title>
<polygon fill="none" stroke="black" points="704,-0.5 704,-69.5 820.5,-69.5 820.5,-0.5 704,-0.5"/>
<text text-anchor="middle" x="762.25" y="-52.2" font-family="Helvetica,Arial,sans-serif" font-size="14.00">game&#45;address&#45;B</text>
<polyline fill="none" stroke="black" points="704,-46.5 820.5,-46.5"/>
<text text-anchor="middle" x="762.25" y="-29.2" font-family="Helvetica,Arial,sans-serif" font-size="14.00">8 ₳</text>
<polyline fill="none" stroke="black" points="704,-23.5 820.5,-23.5"/>
<text text-anchor="middle" x="762.25" y="-6.2" font-family="Helvetica,Arial,sans-serif" font-size="14.00"> </text>
</g>
<!-- end&#45;game&#45;b&#45;&gt;game&#45;token&#45;b&#45;n -->
<g id="edge23" class="edge">
<title>end&#45;game&#45;b&#45;&gt;game&#45;token&#45;b&#45;n</title>
<path fill="none" stroke="black" d="M679.03,-106.11C673.11,-97.93 666.19,-88.38 659.4,-79"/>
<polygon fill="black" stroke="black" points="662.28,-77.02 653.58,-70.97 656.61,-81.12 662.28,-77.02"/>
</g>
<!-- end&#45;game&#45;b&#45;&gt;collateral&#45;b&#45;n+1 -->
<g id="edge22" class="edge">
<title>end&#45;game&#45;b&#45;&gt;collateral&#45;b&#45;n+1</title>
<path fill="none" stroke="black" d="M711.47,-106.11C717.39,-97.93 724.31,-88.38 731.1,-79"/>
<polygon fill="black" stroke="black" points="733.89,-81.12 736.92,-70.97 728.22,-77.02 733.89,-81.12"/>
</g>
</g>
</svg>
